<svg id="visual" viewBox="0 0 1920 1080" width="1920" height="1080" xmlns="http://www.w3.org/2000/svg" xmlns:xlink="http://www.w3.org/1999/xlink" version="1.1"><rect x="0" y="0" width="1920" height="1080" fill="#001220"></rect><path d="M0 259L18.8 294.3C37.7 329.7 75.3 400.3 113 401.8C150.7 403.3 188.3 335.7 226 325.2C263.7 314.7 301.3 361.3 339 390.3C376.7 419.3 414.3 430.7 452 438.5C489.7 446.3 527.3 450.7 565 408.2C602.7 365.7 640.3 276.3 678 280.5C715.7 284.7 753.3 382.3 791 383C828.7 383.7 866.3 287.3 903.8 236.3C941.3 185.3 978.7 179.7 1016.2 220.3C1053.7 261 1091.3 348 1129 376C1166.7 404 1204.3 373 1242 338.2C1279.7 303.3 1317.3 264.7 1355 253.5C1392.7 242.3 1430.3 258.7 1468 276.7C1505.7 294.7 1543.3 314.3 1581 346.8C1618.7 379.3 1656.3 424.7 1694 419.7C1731.7 414.7 1769.3 359.3 1807 365.3C1844.7 371.3 1882.3 438.7 1901.2 472.3L1920 506L1920 1081L1901.2 1081C1882.3 1081 1844.7 1081 1807 1081C1769.3 1081 1731.7 1081 1694 1081C1656.3 1081 1618.7 1081 1581 1081C1543.3 1081 1505.7 1081 1468 1081C1430.3 1081 1392.7 1081 1355 1081C1317.3 1081 1279.7 1081 1242 1081C1204.3 1081 1166.7 1081 1129 1081C1091.3 1081 1053.7 1081 1016.2 1081C978.7 1081 941.3 1081 903.8 1081C866.3 1081 828.7 1081 791 1081C753.3 1081 715.7 1081 678 1081C640.3 1081 602.7 1081 565 1081C527.3 1081 489.7 1081 452 1081C414.3 1081 376.7 1081 339 1081C301.3 1081 263.7 1081 226 1081C188.3 1081 150.7 1081 113 1081C75.3 1081 37.7 1081 18.8 1081L0 1081Z" fill="#374f67"></path><path d="M0 510L18.8 498.5C37.7 487 75.3 464 113 439.5C150.7 415 188.3 389 226 391.5C263.7 394 301.3 425 339 425.7C376.7 426.3 414.3 396.7 452 384.3C489.7 372 527.3 377 565 386.2C602.7 395.3 640.3 408.7 678 432.8C715.7 457 753.3 492 791 489C828.7 486 866.3 445 903.8 411C941.3 377 978.7 350 1016.2 346.3C1053.7 342.7 1091.3 362.3 1129 372C1166.7 381.7 1204.3 381.3 1242 395.7C1279.7 410 1317.3 439 1355 433.7C1392.7 428.3 1430.3 388.7 1468 366.2C1505.7 343.7 1543.3 338.3 1581 332.2C1618.7 326 1656.3 319 1694 349.8C1731.7 380.7 1769.3 449.3 1807 460.3C1844.7 471.3 1882.3 424.7 1901.2 401.3L1920 378L1920 1081L1901.2 1081C1882.3 1081 1844.7 1081 1807 1081C1769.3 1081 1731.7 1081 1694 1081C1656.3 1081 1618.7 1081 1581 1081C1543.3 1081 1505.7 1081 1468 1081C1430.3 1081 1392.7 1081 1355 1081C1317.3 1081 1279.7 1081 1242 1081C1204.3 1081 1166.7 1081 1129 1081C1091.3 1081 1053.7 1081 1016.2 1081C978.7 1081 941.3 1081 903.8 1081C866.3 1081 828.7 1081 791 1081C753.3 1081 715.7 1081 678 1081C640.3 1081 602.7 1081 565 1081C527.3 1081 489.7 1081 452 1081C414.3 1081 376.7 1081 339 1081C301.3 1081 263.7 1081 226 1081C188.3 1081 150.7 1081 113 1081C75.3 1081 37.7 1081 18.8 1081L0 1081Z" fill="#425d78"></path><path d="M0 491L18.8 500C37.7 509 75.3 527 113 529.3C150.7 531.7 188.3 518.3 226 503.8C263.7 489.3 301.3 473.7 339 470C376.7 466.3 414.3 474.7 452 508.3C489.7 542 527.3 601 565 594.8C602.7 588.7 640.3 517.3 678 489.2C715.7 461 753.3 476 791 507.2C828.7 538.3 866.3 585.7 903.8 598.8C941.3 612 978.7 591 1016.2 574.2C1053.7 557.3 1091.3 544.7 1129 531.5C1166.7 518.3 1204.3 504.7 1242 504.7C1279.7 504.7 1317.3 518.3 1355 523.8C1392.7 529.3 1430.3 526.7 1468 534.8C1505.7 543 1543.3 562 1581 558.7C1618.7 555.3 1656.3 529.7 1694 519.5C1731.7 509.3 1769.3 514.7 1807 531.5C1844.7 548.3 1882.3 576.7 1901.2 590.8L1920 605L1920 1081L1901.2 1081C1882.3 1081 1844.7 1081 1807 1081C1769.3 1081 1731.7 1081 1694 1081C1656.3 1081 1618.7 1081 1581 1081C1543.3 1081 1505.7 1081 1468 1081C1430.3 1081 1392.7 1081 1355 1081C1317.3 1081 1279.7 1081 1242 1081C1204.3 1081 1166.7 1081 1129 1081C1091.3 1081 1053.7 1081 1016.2 1081C978.7 1081 941.3 1081 903.8 1081C866.3 1081 828.7 1081 791 1081C753.3 1081 715.7 1081 678 1081C640.3 1081 602.7 1081 565 1081C527.3 1081 489.7 1081 452 1081C414.3 1081 376.7 1081 339 1081C301.3 1081 263.7 1081 226 1081C188.3 1081 150.7 1081 113 1081C75.3 1081 37.7 1081 18.8 1081L0 1081Z" fill="#4c6b8a"></path><path d="M0 710L18.8 701.2C37.7 692.3 75.3 674.7 113 653C150.7 631.3 188.3 605.7 226 616C263.7 626.3 301.3 672.7 339 676.2C376.7 679.7 414.3 640.3 452 655.2C489.7 670 527.3 739 565 765C602.7 791 640.3 774 678 758.7C715.7 743.3 753.3 729.7 791 717.2C828.7 704.7 866.3 693.3 903.8 700C941.3 706.7 978.7 731.3 1016.2 739.2C1053.7 747 1091.3 738 1129 733.2C1166.7 728.3 1204.3 727.7 1242 740.7C1279.7 753.7 1317.3 780.3 1355 769.8C1392.7 759.3 1430.3 711.7 1468 675.2C1505.7 638.7 1543.3 613.3 1581 612.8C1618.7 612.3 1656.3 636.7 1694 670.2C1731.7 703.7 1769.3 746.3 1807 735.3C1844.7 724.3 1882.3 659.7 1901.2 627.3L1920 595L1920 1081L1901.2 1081C1882.3 1081 1844.7 1081 1807 1081C1769.3 1081 1731.7 1081 1694 1081C1656.3 1081 1618.7 1081 1581 1081C1543.3 1081 1505.7 1081 1468 1081C1430.3 1081 1392.7 1081 1355 1081C1317.3 1081 1279.7 1081 1242 1081C1204.3 1081 1166.7 1081 1129 1081C1091.3 1081 1053.7 1081 1016.2 1081C978.7 1081 941.3 1081 903.8 1081C866.3 1081 828.7 1081 791 1081C753.3 1081 715.7 1081 678 1081C640.3 1081 602.7 1081 565 1081C527.3 1081 489.7 1081 452 1081C414.3 1081 376.7 1081 339 1081C301.3 1081 263.7 1081 226 1081C188.3 1081 150.7 1081 113 1081C75.3 1081 37.7 1081 18.8 1081L0 1081Z" fill="#58799c"></path><path d="M0 781L18.8 796.7C37.7 812.3 75.3 843.7 113 863.7C150.7 883.7 188.3 892.3 226 876.3C263.7 860.3 301.3 819.7 339 805.2C376.7 790.7 414.3 802.3 452 798.5C489.7 794.7 527.3 775.3 565 777.7C602.7 780 640.3 804 678 824.3C715.7 844.7 753.3 861.3 791 850.3C828.7 839.3 866.3 800.7 903.8 780C941.3 759.3 978.7 756.7 1016.2 773C1053.7 789.3 1091.3 824.7 1129 824.8C1166.7 825 1204.3 790 1242 771.7C1279.7 753.3 1317.3 751.7 1355 759.7C1392.7 767.7 1430.3 785.3 1468 795.3C1505.7 805.3 1543.3 807.7 1581 822.2C1618.7 836.7 1656.3 863.3 1694 859.8C1731.7 856.3 1769.3 822.7 1807 799.3C1844.7 776 1882.3 763 1901.2 756.5L1920 750L1920 1081L1901.2 1081C1882.3 1081 1844.7 1081 1807 1081C1769.3 1081 1731.7 1081 1694 1081C1656.3 1081 1618.7 1081 1581 1081C1543.3 1081 1505.7 1081 1468 1081C1430.3 1081 1392.7 1081 1355 1081C1317.3 1081 1279.7 1081 1242 1081C1204.3 1081 1166.7 1081 1129 1081C1091.3 1081 1053.7 1081 1016.2 1081C978.7 1081 941.3 1081 903.8 1081C866.3 1081 828.7 1081 791 1081C753.3 1081 715.7 1081 678 1081C640.3 1081 602.7 1081 565 1081C527.3 1081 489.7 1081 452 1081C414.3 1081 376.7 1081 339 1081C301.3 1081 263.7 1081 226 1081C188.3 1081 150.7 1081 113 1081C75.3 1081 37.7 1081 18.8 1081L0 1081Z" fill="#6389ae"></path><path d="M0 877L18.8 896C37.7 915 75.3 953 113 970.5C150.7 988 188.3 985 226 977.5C263.7 970 301.3 958 339 947.5C376.7 937 414.3 928 452 936C489.7 944 527.3 969 565 980.7C602.7 992.3 640.3 990.7 678 966.5C715.7 942.3 753.3 895.7 791 880.3C828.7 865 866.3 881 903.8 896.5C941.3 912 978.7 927 1016.2 933.2C1053.7 939.3 1091.3 936.7 1129 926.5C1166.7 916.3 1204.3 898.7 1242 908.7C1279.7 918.7 1317.3 956.3 1355 963.3C1392.7 970.3 1430.3 946.7 1468 926.3C1505.7 906 1543.3 889 1581 885.3C1618.7 881.7 1656.3 891.3 1694 906.3C1731.7 921.3 1769.3 941.7 1807 948.5C1844.7 955.3 1882.3 948.7 1901.2 945.3L1920 942L1920 1081L1901.2 1081C1882.3 1081 1844.7 1081 1807 1081C1769.3 1081 1731.7 1081 1694 1081C1656.3 1081 1618.7 1081 1581 1081C1543.3 1081 1505.7 1081 1468 1081C1430.3 1081 1392.7 1081 1355 1081C1317.3 1081 1279.7 1081 1242 1081C1204.3 1081 1166.7 1081 1129 1081C1091.3 1081 1053.7 1081 1016.2 1081C978.7 1081 941.3 1081 903.8 1081C866.3 1081 828.7 1081 791 1081C753.3 1081 715.7 1081 678 1081C640.3 1081 602.7 1081 565 1081C527.3 1081 489.7 1081 452 1081C414.3 1081 376.7 1081 339 1081C301.3 1081 263.7 1081 226 1081C188.3 1081 150.7 1081 113 1081C75.3 1081 37.7 1081 18.8 1081L0 1081Z" fill="#6f98c1"></path></svg>